<?xml version="1.0" standalone="no"?>
<!DOCTYPE svg PUBLIC "-//W3C//DTD SVG 20010904//EN"
 "http://www.w3.org/TR/2001/REC-SVG-20010904/DTD/svg10.dtd">
<svg version="1.0" xmlns="http://www.w3.org/2000/svg"
 width="16.000000pt" height="16.000000pt" viewBox="0 0 16.000000 16.000000"
 preserveAspectRatio="xMidYMid meet">
<metadata>
Created by potrace 1.11, written by Peter Selinger 2001-2013
</metadata>
<g transform="translate(0.000000,16.000000) scale(0.006250,-0.006250)"
fill="#000000" stroke="none">
<path d="M116 2535 c-9 -13 -16 -33 -16 -44 0 -11 -6 -26 -14 -33 -12 -12 -11
-20 2 -54 19 -49 20 -300 2 -345 -11 -25 -10 -32 4 -47 25 -28 27 -83 4 -102
-16 -13 -18 -20 -9 -43 6 -16 11 -49 11 -75 1 -44 2 -46 15 -28 8 11 12 29 9
39 -7 23 15 19 27 -4 18 -37 40 -119 37 -140 -1 -13 3 -43 10 -66 12 -40 15
-43 47 -43 54 0 65 -8 58 -41 -3 -18 -1 -29 6 -29 7 0 12 27 13 73 1 39 3 88
4 107 1 19 3 90 4 156 3 149 17 196 88 283 29 36 52 71 52 78 0 7 5 13 10 13
6 0 9 3 8 8 -1 7 6 28 27 77 15 34 22 83 30 203 l5 82 -209 0 -209 0 -16 -25z"/>
<path d="M2374 2552 c7 -11 11 -391 4 -397 -3 -3 -34 4 -69 16 -49 16 -79 19
-128 15 -35 -3 -68 -10 -75 -15 -6 -5 -47 -16 -91 -26 -44 -9 -89 -21 -100
-26 -11 -5 -48 -15 -82 -23 -93 -21 -120 -45 -127 -109 -3 -28 -9 -77 -12
-107 -4 -30 -6 -64 -6 -75 1 -48 33 -244 46 -282 12 -34 12 -44 1 -59 -10 -15
-10 -20 1 -32 11 -10 11 -18 3 -34 -9 -17 -8 -24 5 -33 20 -15 20 -25 0 -40
-14 -10 -14 -15 -5 -34 7 -12 21 -31 31 -41 17 -17 18 -17 34 1 23 27 21 84
-4 102 -19 13 -19 14 9 52 l29 39 -23 18 c-13 10 -30 18 -39 18 -9 0 -16 5
-16 11 0 7 20 10 57 7 57 -3 57 -3 60 26 2 34 2 34 35 38 15 2 30 7 34 11 4 4
57 7 117 7 122 0 133 4 215 88 23 24 58 50 76 57 19 8 36 20 39 27 4 9 6 7 6
-3 1 -9 8 -22 16 -29 8 -7 12 -16 9 -22 -3 -5 0 -15 6 -23 13 -16 10 -80 -9
-165 -6 -30 -6 -49 1 -57 7 -9 7 -13 -1 -13 -7 0 -9 -4 -6 -10 3 -5 1 -10 -5
-10 -7 0 -9 -8 -5 -20 4 -12 2 -26 -3 -33 -5 -7 -12 -35 -15 -64 -4 -34 -13
-59 -27 -73 -12 -12 -20 -30 -17 -39 2 -10 -2 -26 -11 -37 -14 -18 -14 -18 -9
4 4 15 1 22 -6 19 -17 -5 -17 -69 0 -85 15 -15 18 -36 4 -27 -10 5 -24 -25
-19 -41 1 -5 -1 -26 -5 -46 -7 -31 -12 -37 -30 -35 -17 1 -21 -3 -19 -18 2
-13 0 -16 -5 -8 -14 20 -52 4 -49 -21 1 -12 5 -26 8 -31 10 -19 18 -80 10 -90
-16 -22 -40 -35 -56 -29 -9 3 -14 10 -11 14 3 5 1 11 -5 15 -15 9 -12 25 5 25
8 0 15 5 15 10 0 6 7 10 16 10 21 0 12 24 -10 28 -10 2 -29 1 -43 -3 -18 -4
-24 -11 -20 -25 3 -12 -2 -20 -13 -23 -12 -3 -17 0 -14 7 7 18 -82 59 -102 48
-11 -6 -38 -1 -87 18 l-70 28 -3 106 c-1 58 -7 113 -13 123 -9 16 -10 16 -11
-4 0 -13 -6 -23 -13 -23 -7 0 -29 -14 -48 -31 -53 -48 -71 -58 -114 -60 -22
-1 -48 -6 -57 -11 -22 -11 -53 5 -90 44 -45 48 -128 36 -141 -21 -4 -17 -1
-24 14 -28 10 -3 19 -8 19 -12 0 -4 16 -15 36 -24 53 -26 43 -50 -24 -58 -62
-8 -59 -6 -64 -39 -2 -21 2 -26 25 -28 15 -2 27 2 27 8 0 6 5 8 10 5 6 -4 22
0 35 9 32 21 51 20 91 -5 19 -11 38 -17 44 -14 17 10 182 -18 187 -32 3 -6 11
-9 19 -6 9 3 14 -1 14 -12 0 -13 6 -16 22 -12 11 3 34 -1 51 -9 18 -10 48 -14
78 -12 29 2 48 -1 46 -7 -1 -5 -15 -10 -32 -11 -16 -1 -32 -2 -35 -4 -3 -1
-47 -4 -99 -6 -91 -4 -153 -16 -178 -36 -7 -5 -49 -9 -95 -8 -92 2 -178 -6
-223 -20 -16 -5 -76 -12 -133 -16 -56 -4 -102 -8 -102 -10 0 -1 4 -14 10 -28
7 -19 17 -26 35 -26 14 0 40 -8 58 -17 43 -23 45 -23 182 -28 152 -6 255 -22
255 -40 0 -17 -60 -30 -96 -21 -15 4 -32 2 -41 -5 -11 -10 -16 -10 -23 1 -8
12 -24 11 -62 -5 -13 -5 -18 -2 -18 9 0 20 -10 20 -38 0 -34 -23 -14 -51 44
-60 31 -4 42 -9 33 -15 -11 -7 -10 -9 4 -9 29 0 19 -18 -18 -30 -19 -6 -35
-17 -35 -23 0 -12 66 -37 98 -37 10 0 27 -7 38 -15 10 -8 27 -15 36 -15 9 0
23 -9 31 -21 21 -29 122 -34 148 -8 11 11 32 18 58 17 23 0 47 4 54 10 6 5 26
12 42 14 45 5 45 -28 0 -70 -21 -20 -35 -43 -35 -57 0 -13 -4 -26 -9 -29 -12
-8 -71 14 -71 25 0 5 -10 4 -21 -3 -17 -10 -23 -10 -26 -1 -3 8 -10 9 -21 4
-9 -5 -35 -13 -57 -18 -25 -5 -40 -14 -40 -23 0 -10 -12 -16 -33 -18 -18 -2
-30 -7 -28 -11 3 -5 -1 -16 -8 -26 -9 -13 -35 -21 -87 -28 -177 -22 -229 -13
-328 59 -28 20 -51 32 -51 27 0 -4 -5 0 -11 10 -5 9 -14 17 -20 17 -13 0 -89
73 -89 86 0 6 -11 17 -25 24 -14 7 -25 19 -25 27 0 8 -12 13 -29 13 -18 0 -31
6 -35 17 -6 15 -8 15 -16 3 -7 -11 -11 -8 -20 14 -7 20 -15 27 -29 23 -15 -3
-18 0 -14 17 4 18 3 17 -10 -4 -16 -30 -13 -40 14 -40 21 0 26 -29 8 -47 -16
-16 -3 -43 21 -43 11 0 20 -4 20 -9 0 -5 15 -14 33 -20 31 -11 87 -69 87 -90
0 -6 6 -11 13 -11 7 0 20 -8 29 -17 10 -10 26 -27 38 -37 11 -11 20 -25 20
-33 0 -11 87 -13 474 -13 l474 0 18 44 c10 24 22 43 25 40 4 -2 10 7 13 21 3
13 17 36 31 51 14 15 25 34 25 43 0 9 14 34 31 54 33 41 83 129 103 186 l12
33 37 -37 c20 -20 49 -62 64 -93 26 -52 28 -66 26 -157 -1 -55 -6 -119 -11
-142 l-10 -43 124 0 124 0 0 616 0 616 -65 -4 -65 -4 0 36 c0 45 25 72 60 64
22 -5 21 -3 -7 15 -35 22 -39 34 -24 75 7 18 19 25 43 28 37 3 51 35 34 79 -7
19 -5 40 7 77 13 37 17 87 17 186 0 74 -4 137 -8 140 -5 3 -5 35 -1 73 5 37 8
179 8 316 l1 247 -96 0 c-52 0 -93 -4 -90 -8z m-150 -568 c9 -3 16 -10 16 -16
0 -5 -5 -6 -11 -3 -6 4 -16 -1 -24 -11 -11 -15 -16 -16 -26 -7 -26 26 6 52 45
37z m-74 -14 c0 -5 -12 -10 -27 -9 -25 0 -26 1 -8 9 27 12 35 12 35 0z m297
-262 c-3 -7 -5 -2 -5 12 0 14 2 19 5 13 2 -7 2 -19 0 -25z m-323 -933 c3 -10
-1 -15 -14 -15 -20 0 -33 13 -23 24 11 11 31 6 37 -9z m-140 -278 c-20 -12
-37 4 -28 27 6 16 8 16 26 0 17 -16 17 -19 2 -27z"/>
<path d="M7 2394 c-16 -17 -5 -25 31 -22 20 2 37 8 37 13 0 12 -57 19 -68 9z"/>
<path d="M705 2129 c-153 -68 -197 -99 -193 -137 4 -34 63 -57 104 -42 14 6
51 10 82 10 41 0 67 6 92 22 65 40 223 31 297 -17 38 -25 17 -36 -78 -41 -213
-10 -299 -38 -332 -106 -21 -43 -13 -57 47 -83 28 -13 71 -39 95 -59 24 -20
55 -39 70 -42 14 -4 31 -11 37 -16 15 -11 153 -13 222 -4 36 6 57 14 65 27 6
10 18 19 26 19 8 0 11 7 8 19 -3 14 3 23 24 31 21 9 29 19 29 38 0 22 3 24 33
19 17 -3 40 -8 49 -12 31 -12 31 22 1 83 -29 58 -30 59 -9 68 11 5 26 20 32
32 6 13 17 29 22 34 8 8 5 19 -9 39 -20 29 -62 46 -184 73 -38 9 -95 23 -125
31 -30 8 -100 19 -155 25 -56 5 -119 12 -140 14 -31 5 -56 -1 -110 -25z m446
-299 c11 -6 25 -25 32 -43 12 -29 12 -33 -9 -49 -31 -25 -55 -13 -52 26 1 17
-2 37 -6 44 -7 11 0 32 10 32 3 0 14 -5 25 -10z m-269 -52 c-15 -15 -26 -4
-18 18 5 13 9 15 18 6 9 -9 9 -15 0 -24z m368 -28 c0 -5 -4 -10 -9 -10 -6 0
-13 5 -16 10 -3 6 1 10 9 10 9 0 16 -4 16 -10z m-265 -71 c24 -7 21 -8 -16 -4
-48 4 -99 23 -99 35 0 4 19 1 43 -7 23 -9 56 -19 72 -24z"/>
<path d="M7 1604 c-4 -4 -7 -72 -7 -151 l0 -143 56 0 c54 0 56 -1 50 -22 -3
-13 -6 -35 -6 -50 0 -27 -2 -28 -50 -28 l-50 0 0 -605 0 -605 223 0 222 0 0
137 c0 136 0 139 32 200 26 49 30 62 18 67 -8 3 -24 -4 -35 -16 -11 -12 -22
-19 -25 -16 -3 3 1 13 10 21 21 22 19 30 -7 21 -34 -10 -12 9 25 22 32 11 32
12 30 71 -1 33 -9 73 -18 89 -10 21 -15 58 -14 129 0 55 3 94 6 88 2 -7 11
-13 18 -13 18 0 9 61 -16 112 -10 20 -20 56 -21 80 -2 23 -5 45 -9 48 -13 12
-40 102 -35 115 8 22 -11 65 -29 65 -10 0 -15 -10 -15 -27 0 -39 -11 -52 -50
-63 -28 -8 -42 -6 -77 11 -37 18 -47 30 -81 102 -67 142 -85 196 -91 281 -5
72 -8 81 -26 84 -12 2 -24 0 -28 -4z m397 -1209 c-4 -8 -11 -15 -16 -15 -6 0
-5 6 2 15 7 8 14 15 16 15 2 0 1 -7 -2 -15z m-144 -85 c-8 -6 -24 -16 -35 -22
l-20 -11 20 21 c11 11 27 21 35 21 13 1 13 0 0 -9z"/>
<path d="M180 1496 c0 -17 27 -46 42 -46 5 0 7 6 4 13 -3 6 -9 20 -12 30 -8
20 -34 23 -34 3z"/>
<path d="M298 1426 c-24 -18 -23 -28 7 -56 l25 -23 -1 24 c-1 13 -4 34 -7 46
-6 19 -9 20 -24 9z"/>
<path d="M325 1310 c-3 -5 2 -21 11 -35 21 -32 38 -14 21 22 -11 24 -22 29
-32 13z"/>
<path d="M2046 977 c-23 -17 -11 -44 22 -50 30 -6 74 26 57 42 -18 16 -62 21
-79 8z"/>
<path d="M500 753 c0 -25 15 -38 25 -22 4 6 0 18 -9 27 -15 15 -16 15 -16 -5z"/>
<path d="M530 699 c0 -16 74 -165 91 -183 15 -16 23 2 9 19 -8 9 -15 28 -16
42 -2 14 -11 34 -20 44 -10 11 -28 36 -40 57 -13 21 -24 30 -24 21z"/>
<path d="M706 635 c4 -8 10 -12 15 -9 11 6 2 24 -11 24 -5 0 -7 -7 -4 -15z"/>
<path d="M2196 173 c-9 -10 -7 -53 3 -53 11 0 21 49 11 55 -4 2 -10 2 -14 -2z"/>
</g>
</svg>
